<?xml version="1.0" encoding="utf-8"?>
<!-- Generator: Adobe Illustrator 25.4.0, SVG Export Plug-In . SVG Version: 6.00 Build 0)  -->
<svg version="1.1" id="Calque_2" xmlns="http://www.w3.org/2000/svg" xmlns:xlink="http://www.w3.org/1999/xlink" x="0px" y="0px"
	 viewBox="0 0 97 96" style="enable-background:new 0 0 97 96;" xml:space="preserve">
<g>
	<path d="M0.6,29.5c0-2.9,0-5.9,0-8.8c0.5-1.3,1.3-2.5,2.7-3.1c0.2-0.1,0.3-0.5,0.3-0.8c0-2.1,0-4.3,0-6.4c0-1.6,0.5-2,2.1-2
		c7.4,0,14.9,0,22.3,0c0.4,0,0.7,0,1.1,0c0-1.4,0-2.7,0-4c0-1.4,0.5-1.9,1.9-1.9c11.7,0,23.4,0,35.1,0c1.4,0,1.9,0.5,1.9,1.9
		c0,1.3,0,2.6,0,4c0.4,0,0.8,0,1.1,0c7.5,0,14.9,0,22.4,0c1.5,0,2,0.5,2,1.9c0,2.2,0,4.3,0,6.5c0,0.3,0.1,0.7,0.3,0.7
		c1.4,0.6,2.1,1.8,2.7,3.1c0,2.9,0,5.9,0,8.8c-0.8,1-1.6,2.1-2.4,3.1c-0.4,0.5-0.6,0.9-0.6,1.4c0,18.5,0,37.1,0,55.6
		c0,0.3,0,0.6,0,1c1.2,0,2.3-0.2,3,0.9c0,0.4,0,0.7,0,1.1c-0.5,0.7-1.3,0.9-2.2,0.9c-30.5,0-61,0-91.5,0c-0.9,0-1.6-0.2-2.2-0.9
		c0-0.4,0-0.7,0-1.1c0.7-1.2,1.9-0.9,3-1c0-2.6,0-5.1,0-7.5c0-16.3,0-32.7,0-49c0-0.3,0-0.8-0.2-1C2.5,31.8,1.6,30.6,0.6,29.5z
		 M84.5,43.7c-15,0-29.9,0-44.9,0c0,13.7,0,27.3,0,41c3.2,0,6.4,0,9.6,0c0-3.9,0-7.8,0-11.6c-0.1,0-0.2,0-0.3,0c-1.2,0-2.3,0-3.5,0
		c-1.8,0-2.2-0.4-2.2-2.2c0-4.9,0.2-9.9-1.1-14.8c-0.7-2.4,0.7-4.9,2.9-5.9c1-0.5,1.3-1,1.2-2c-0.1-1,0.5-1.6,1.5-1.6c2,0,4,0,6,0
		c0.9,0,1.4,0.6,1.5,1.4c0,0.4-0.1,0.7,0,1.1c0.1,0.3,0.3,0.6,0.5,0.7c3,1.4,4.2,3.7,3.5,6.9c-0.7,2.9-1.2,5.7-1,8.7
		c0.1,1.9,0,3.8,0,5.7c0,1.4-0.5,1.9-1.9,1.9c-1.3,0-2.7,0-4,0c0,4,0,7.8,0,11.7c5.5,0,10.9,0,16.4,0c0-1.5,0-2.9,0-4.3
		c-2.5,0-5,0-7.5,0c-1.9,0-2.5-0.7-1.9-2.5c1.6-5.2,3.1-10.5,4.7-15.7c0.1-0.4,0.1-1-0.1-1.4c-0.4-1.1-0.9-2.2-1.4-3.3
		c-1-2.5-0.1-5.4,2.2-6.8c0.9-0.6,1.2-1.2,1.1-2.1c0-0.1,0-0.2,0-0.3c0-1,0.6-1.6,1.7-1.6c1.9,0,3.8,0,5.7,0c1,0,1.6,0.6,1.6,1.6
		c0,0.4-0.1,0.7,0,1.1c0.1,0.3,0.2,0.7,0.5,0.8c2.9,1.8,4,4.7,2.5,7.7c-1.3,2.5-1.3,4.7-0.4,7.3c1.5,4.2,2.6,8.5,3.9,12.7
		c0.5,1.8,0,2.5-1.9,2.5c-0.7,0-1.4,0-2.1,0c-1.8,0-3.7,0-5.5,0c0,1.5,0,2.9,0,4.3c4.3,0,8.5,0,12.6,0
		C84.5,70.9,84.5,57.3,84.5,43.7z M71.9,31.8c-1,0.7-1.8,1.6-2.9,2.1c-0.8,0.4-1,0.9-1,1.7c0.1,1.7-0.4,2.1-2.1,2.1
		c-11.5,0-23.1,0-34.6,0c-0.2,0-0.4,0-0.7,0c-0.9-0.1-1.4-0.6-1.5-1.5c0-0.5,0-0.9,0-1.4c0-0.2-0.1-0.5-0.3-0.6
		c-1.2-0.8-2.4-1.6-3.6-2.4c-2.8,3.4-7.5,4.4-11.5-0.1c-2.5,2.7-4.7,3.2-7,3c0,16.6,0,33.3,0,49.9c1,0,1.9,0,2.9,0
		c0-0.4,0-0.8,0-1.1c0-13.6,0-27.2,0-40.8c0-1.6,0.4-2.1,2.1-2.1c6.6,0,13.1,0,19.7,0c1.8,0,2.2,0.4,2.2,2.2c0,13.6,0,27.2,0,40.7
		c0,0.4,0,0.7,0,1.1c1,0,2,0,3,0c0-0.4,0-0.8,0-1.1c0-13.5,0-27.1,0-40.6c0-1.8,0.4-2.2,2.3-2.2c15.5,0,31,0,46.4,0
		c1.8,0,2.2,0.4,2.2,2.2c0,13.6,0,27.2,0,40.7c0,0.4,0,0.7,0,1c1.1,0,2,0,2.9,0c0-16.7,0-33.3,0-49.9c-3,0.4-5.2-0.8-7-3
		C80.4,35.8,74.9,35.8,71.9,31.8z M65,5.5c-11,0-21.9,0-32.8,0c0,9.8,0,19.5,0,29.2c11,0,21.9,0,32.8,0C65,25,65,15.3,65,5.5z
		 M28.8,31c0.1-0.1,0.1-0.1,0.2-0.2c0-3.6,0-7.1,0-10.7c-0.2,0-0.3,0-0.4,0c-7.8,0-15.5,0-23.3,0c-1.1,0-1.7,0.6-1.7,1.7
		c0,1.7,0.1,3.4,0,5c-0.2,2.1,1,3.4,2.6,4.4c1.1,0.8,2.4,0.8,3.5,0c0.9-0.7,1.8-1.6,2.4-2.6c1.1-1.5,2.2-1.6,3.2,0
		c0.5,0.8,1.1,1.5,1.7,2.1c1.6,1.4,3.3,1.4,4.9,0c0.7-0.6,1.2-1.4,1.7-2.1c1-1.5,2.2-1.5,3.2,0C27.5,29.5,28.2,30.2,28.8,31z
		 M68.1,30.9c0.1,0.1,0.2,0.1,0.3,0.2c0.6-0.8,1.4-1.6,1.9-2.5c0.9-1.4,2.1-1.4,3,0c0.7,1,1.5,1.9,2.4,2.7c1.2,1,2.6,1,3.8,0
		c0.9-0.7,1.7-1.6,2.3-2.6c1-1.5,2.2-1.5,3.2,0c0.5,0.8,1.2,1.6,1.9,2.2c1.1,0.9,2.4,1.4,3.7,0.6c1.5-0.8,2.8-1.9,2.9-3.7
		c0.1-1.9,0-3.7,0-5.6c0-1.6-0.5-2.1-2.1-2.1c-7.5,0-14.9,0-22.4,0c-0.3,0-0.6,0-0.9,0C68.1,23.8,68.1,27.3,68.1,30.9z M66,53.3
		c-0.9,0.9-1.1,2-0.6,3.1c0.5,1.3,1.1,2.5,1.5,3.7c0.2,0.6,0.3,1.4,0.1,2c-0.6,2.2-1.3,4.3-1.9,6.5c-0.9,2.9-1.7,5.7-2.6,8.7
		c5.2,0,10.3,0,15.4,0c-0.1-0.4-0.2-0.7-0.2-0.9c-1.4-4.7-2.7-9.3-4.2-14c-0.3-0.9-0.2-1.7,0.2-2.5c0.5-1.1,1-2.3,1.5-3.5
		c0.5-1.2,0.2-2.3-0.7-3.1C72.7,56.9,68.1,57.1,66,53.3z M33.7,90.5c19,0,37.9,0,56.8,0c0-1,0-1.9,0-2.8c-19,0-37.9,0-56.8,0
		C33.7,88.6,33.7,89.5,33.7,90.5z M55.3,70c0-1,0-1.9,0-2.8c0-3.2-0.2-6.5,0.7-9.6c0.2-0.7,0.3-1.4,0.5-2.2c0.2-1.1-0.3-2-1.4-2.5
		c-0.7,1.9-2.1,3.1-4.2,3.2c-2.3,0-3.7-1.2-4.5-3.2c-1.3,0.8-1.6,1.7-1.2,3.4c0.9,3.2,1.2,6.5,1.1,9.8c-0.1,1.1,0,2.2,0,3.3
		c0,0.2,0,0.5,0.1,0.7C49.4,70,52.3,70,55.3,70z M6.7,11.3c0,2,0,3.9,0,5.8c7.5,0,14.9,0,22.3,0c0-2,0-3.9,0-5.8
		C21.6,11.3,14.2,11.3,6.7,11.3z M68.1,11.3c0,2,0,3.9,0,5.8c7.5,0,14.9,0,22.4,0c0-2,0-3.8,0-5.8C83,11.3,75.6,11.3,68.1,11.3z
		 M12.7,49.4c6,0,12,0,17.9,0c0-2,0-3.9,0-5.8c-6,0-11.9,0-17.9,0C12.7,45.6,12.7,47.5,12.7,49.4z M12.7,52.4c0,2.5,0,4.9,0,7.2
		c2.5,0,5,0,7.4,0c0-2.4,0-4.8,0-7.2C17.6,52.4,15.2,52.4,12.7,52.4z M23.2,52.4c0,2.5,0,4.9,0,7.2c2.5,0,5,0,7.4,0
		c0-2.4,0-4.8,0-7.2C28.1,52.4,25.7,52.4,23.2,52.4z M20.1,70c0-2.5,0-4.8,0-7.3c-2.5,0-4.9,0-7.4,0c0,2.4,0,4.8,0,7.3
		C15.2,70,17.6,70,20.1,70z M30.6,62.7c-2.5,0-5,0-7.4,0c0,2.5,0,4.8,0,7.2c2.5,0,5,0,7.4,0C30.6,67.5,30.6,65.2,30.6,62.7z
		 M20.1,80.2c0-2.5,0-4.8,0-7.2c-2.5,0-4.9,0-7.4,0c0,2.4,0,4.8,0,7.2C15.1,80.2,17.6,80.2,20.1,80.2z M23.2,73c0,2.5,0,4.9,0,7.2
		c2.5,0,5,0,7.4,0c0-2.4,0-4.8,0-7.2C28.1,73,25.7,73,23.2,73z M12.7,83.2c0,2.4,0,4.8,0,7.3c2.5,0,4.9,0,7.3,0c0-2.5,0-4.8,0-7.3
		C17.6,83.2,15.2,83.2,12.7,83.2z M30.5,90.5c0-2.5,0-4.9,0-7.2c-2.5,0-5,0-7.4,0c0,2.4,0,4.8,0,7.2C25.6,90.5,28.1,90.5,30.5,90.5z
		 M49.4,49.5c0,0.8,0,1.6,0,2.3c0.1,0.8,0.7,1.4,1.5,1.4c0.8,0,1.4-0.5,1.5-1.3c0.1-0.8,0-1.6,0-2.4C51.3,49.5,50.4,49.5,49.4,49.5z
		 M68.8,49.5c0,0.4,0,0.7,0,1.1c0,0.4,0,0.8,0,1.2c0.1,0.8,0.7,1.4,1.5,1.4c0.8,0,1.4-0.5,1.5-1.3c0.1-0.7,0-1.5,0-2.3
		C70.8,49.5,69.9,49.5,68.8,49.5z M6.7,90.5c1,0,1.9,0,2.9,0c0-1,0-1.9,0-2.8c-1,0-1.9,0-2.9,0C6.7,88.7,6.7,89.6,6.7,90.5z"/>
	<path d="M57.6,18.6c0,0.5,0,1,0,1.4c0,3.3,0,6.6,0,9.9c0,1.3-0.5,1.9-1.8,1.9c-4.8,0-9.5,0-14.3,0c-1.3,0-1.8-0.5-1.8-1.8
		c0-3.8,0-7.5,0-11.4c-0.9,0-1.8,0-2.7,0c-1.2,0-1.8-0.5-1.8-1.7c0.1-1.4,0.1-2.8,0.6-4c1.2-2.9,3.5-4.4,6.7-4.5
		c4.1-0.1,8.2-0.1,12.3,0c4.1,0,7.3,3.2,7.4,7.2c0.1,2.9-0.1,3.1-3,3.1C58.6,18.6,58.2,18.6,57.6,18.6z M59,15.7c0-3-2.7-4.9-6-4.3
		c0,0.5,0,1,0,1.4c-0.1,2.4-2,4.3-4.4,4.3c-2.5,0-4.5-1.9-4.5-4.3c0-0.5,0-1,0-1.5c-3.7-0.2-6,1.4-5.9,4.4c0.8,0,1.5,0,2.3,0
		c1.7,0,2.1,0.4,2.1,2c0,3.4,0,6.8,0,10.2c0,0.3,0,0.6,0,0.9c4.1,0,8,0,12,0c0-0.4,0-0.7,0-1c0-3.5,0-6.9,0-10.4
		c0-1.2,0.5-1.7,1.8-1.8C57.2,15.7,58.1,15.7,59,15.7z M50.1,11.3c-0.5,0-1,0-1.4,0c-0.5,0-1,0-1.4,0c-0.2,2,0.2,2.9,1.4,2.9
		C49.7,14.2,50.2,13.4,50.1,11.3z"/>
</g>
</svg>
