<?xml version="1.0" encoding="utf-8"?>
<!-- Generator: Adobe Illustrator 25.4.0, SVG Export Plug-In . SVG Version: 6.00 Build 0)  -->
<svg version="1.1" id="Calque_3" xmlns="http://www.w3.org/2000/svg" xmlns:xlink="http://www.w3.org/1999/xlink" x="0px" y="0px"
	 viewBox="0 0 97 96" style="enable-background:new 0 0 97 96;" xml:space="preserve">
<g>
	<path d="M48.6,76.3c-13.9,0-27.8,0-41.7,0c-3.6,0-5.5-1.8-5.5-5.4c0-21.6,0-43.1,0-64.7c0-3.6,1.8-5.4,5.5-5.4
		c27.8,0,55.6,0,83.5,0c3.7,0,5.5,1.8,5.5,5.5c0,21.5,0,43,0,64.5c0,3.7-1.8,5.5-5.6,5.5C76.4,76.3,62.5,76.3,48.6,76.3z M92.7,60.5
		c0-0.4,0-0.6,0-0.9c0-17.9,0-35.7,0-53.6c0-1.6-0.5-2.1-2.2-2.1c-27.9,0-55.8,0-83.7,0C5,3.9,4.6,4.4,4.6,6.2c0,17.8,0,35.5,0,53.3
		c0,0.3,0,0.7,0,1C34,60.5,63.3,60.5,92.7,60.5z M4.6,63.8c0,2.4,0,4.6,0,6.9c0,2.2,0.4,2.5,2.5,2.5c27.7,0,55.4,0,83.2,0
		c0.2,0,0.4,0,0.6,0c1.3,0,1.9-0.6,1.9-1.9c0-2.2,0-4.3,0-6.5c0-0.3,0-0.7,0-1.1C63.2,63.8,34,63.8,4.6,63.8z"/>
	<path d="M34.3,78.9c0.9,0.4,1.8,0.8,2.8,1.2c-1.7,4-3.3,7.9-5,11.9c11,0,21.9,0,33,0c-1.7-4-3.3-7.9-5-11.9c1-0.4,1.9-0.8,2.9-1.2
		c1.1,2.5,2.1,5,3.1,7.5c0.9,2.1,1.8,4.2,2.6,6.3c0.6,1.5,0,2.5-1.7,2.5c-12.3,0-24.6,0-37,0c-1.6,0-2.3-1-1.8-2.3
		c1.9-4.6,3.8-9.2,5.7-13.8C34.1,79,34.2,79,34.3,78.9z"/>
	<path d="M32.9,13.4c7.6,0,15.3,0,22.9,0c1.8,0,2.3,0.5,2.3,2.3c0,11.1,0,22.2,0,33.2c0,1.8-0.5,2.3-2.3,2.3c-15.3,0-30.5,0-45.8,0
		c-1.8,0-2.3-0.5-2.3-2.3c0-11.1,0-22.2,0-33.2c0-1.8,0.5-2.3,2.3-2.3C17.6,13.4,25.2,13.4,32.9,13.4z M32.9,33.2
		c0.3-0.3,0.6-0.5,0.8-0.7c2.4-2.4,4.8-4.8,7.2-7.2c1.2-1.2,1.9-1.2,3.1,0c3.4,3.4,6.8,6.8,10.2,10.1c0.2,0.2,0.5,0.5,0.8,0.8
		c0-6.6,0-13.1,0-19.6c-14.7,0-29.3,0-43.9,0c0,5.5,0,10.9,0,16.5c0.4-0.3,0.6-0.6,0.9-0.8c2.8-2.8,5.6-5.6,8.4-8.4
		c1.4-1.4,2-1.4,3.3,0C26.6,26.9,29.7,30,32.9,33.2z M42.8,48c-7-7-14.1-14.1-21.1-21.1c-3.4,3.4-7,7-10.5,10.5
		c-0.2,0.2-0.3,0.6-0.3,1c0,1.5,0,3.1,0,4.6c0,1.7,0,3.3,0,5C21.6,48,32.3,48,42.8,48z M54.9,48c0-2.2,0-4.3,0-6.4
		c0-0.5-0.2-1-0.6-1.3c-3.8-3.8-7.6-7.6-11.4-11.4c-0.2-0.2-0.4-0.4-0.5-0.4c-2.4,2.4-4.8,4.8-7.2,7.2c4,4,8.1,8.1,12.2,12.1
		c0.1,0.1,0.4,0.3,0.6,0.3C50.3,48,52.5,48,54.9,48z"/>
	<path d="M83.2,14.9c0,1.1,0,2.1,0,3.1c-1,0-2,0-3.1,0c0-1,0-2,0-3.1c-6.3,0-12.6,0-18.9,0c0-1.1,0-2,0-3.1c6.2,0,12.5,0,18.8,0
		c0-1.1,0-2.1,0-3.1c1.1,0,2,0,3.1,0c0,1,0,2,0,3.1c2.1,0,4.2,0,6.3,0c0,1.1,0,2,0,3.1C87.4,14.9,85.4,14.9,83.2,14.9z"/>
	<path d="M61.3,24.4c1,0,2,0,3,0c0-1,0-2,0-3.1c1.1,0,2.1,0,3.2,0c0,1,0,2,0,3c7.4,0,14.6,0,22,0c0,1.1,0,2.1,0,3.2
		c-7.3,0-14.6,0-21.9,0c0,1.1,0,2,0,3.1c-1.1,0-2.1,0-3.2,0c0-1,0-2,0-3c-1.1,0-2,0-3.1,0C61.3,26.5,61.3,25.5,61.3,24.4z"/>
	<path d="M89.5,37c0,1.1,0,2.1,0,3.2c-4.2,0-8.3,0-12.5,0c0,1.1,0,2.1,0,3.1c-1.1,0-2.1,0-3.2,0c0-1,0-2,0-3.1c-4.2,0-8.3,0-12.5,0
		c0-1.1,0-2.1,0-3.2c4.2,0,8.3,0,12.5,0c0-1.1,0-2.1,0-3.1c1.1,0,2.1,0,3.2,0c0,1,0,2,0,3.1C81.1,37,85.3,37,89.5,37z"/>
	<path d="M80,46.5c1.1,0,2.1,0,3.2,0c0,1,0,2,0,3.1c2.1,0,4.2,0,6.3,0c0,1.1,0,2.1,0,3.2c-2.1,0-4.1,0-6.2,0c0,1.1,0,2.1,0,3.1
		c-1.1,0-2.1,0-3.2,0c0-1,0-2,0-3.1c-6.3,0-12.5,0-18.8,0c0-1.1,0-2.1,0-3.2c6.2,0,12.5,0,18.8,0C80,48.5,80,47.5,80,46.5z"/>
	<path d="M80.1,69.9c0-1,0-2,0-3c1,0,2,0,3.1,0c0,1,0,2,0,3C82.2,69.9,81.2,69.9,80.1,69.9z"/>
	<path d="M89.4,70c-1,0-2,0-3,0c0-1,0-2,0-3c1,0,2,0,3,0C89.4,67.9,89.4,68.9,89.4,70z"/>
	<path d="M32.9,27.5c-2.6,0-4.7-2.1-4.7-4.7c0-2.6,2.1-4.8,4.7-4.8c2.6,0,4.7,2.1,4.7,4.7C37.6,25.4,35.5,27.5,32.9,27.5z
		 M34.4,22.8c0-0.8-0.7-1.5-1.6-1.5c-0.9,0-1.6,0.7-1.6,1.6c0,0.8,0.8,1.5,1.6,1.5C33.8,24.4,34.5,23.7,34.4,22.8z"/>
</g>
</svg>
